<svg viewBox="0 0 32 32" xmlns="http://www.w3.org/2000/svg"><g data-name="Layer 2"><path d="M16 29a13 13 0 1 1 13-13 13 13 0 0 1-13 13Zm0-24a11 11 0 1 0 11 11A11 11 0 0 0 16 5Z" fill="#e60303" class="fill-000000"></path><path d="M11.76 21.24a1 1 0 0 1-.71-.29 1 1 0 0 1 0-1.41l8.49-8.49A1 1 0 0 1 21 12.46L12.46 21a1 1 0 0 1-.7.24Z" fill="#e60303" class="fill-000000"></path><path d="M20.24 21.24a1 1 0 0 1-.7-.29l-8.49-8.49a1 1 0 0 1 1.41-1.41L21 19.54A1 1 0 0 1 21 21a1 1 0 0 1-.76.24Z" fill="#e60303" class="fill-000000"></path></g><path d="M0 0h32v32H0z" fill="none"></path></svg>